<?xml version="1.0" standalone="no"?><!DOCTYPE svg PUBLIC "-//W3C//DTD SVG 1.1//EN" "http://www.w3.org/Graphics/SVG/1.1/DTD/svg11.dtd"><svg t="1715094594128" class="icon" viewBox="0 0 1024 1024" version="1.1" xmlns="http://www.w3.org/2000/svg" p-id="18588" xmlns:xlink="http://www.w3.org/1999/xlink" width="80" height="80"><path d="M512 64C264.6 64 64 264.6 64 512s200.6 448 448 448 448-200.6 448-448S759.4 64 512 64z m186.3 583.5a4 4 0 0 1 0 5.7l-45.1 45.1a4 4 0 0 1-5.7 0L512 562.8 376.5 698.3a4 4 0 0 1-5.7 0l-45.1-45.1a4 4 0 0 1 0-5.7L461.2 512 325.7 376.5a4 4 0 0 1 0-5.7l45.1-45.1a4 4 0 0 1 5.7 0L512 461.2l135.5-135.5a4 4 0 0 1 5.7 0l45.1 45.1a4 4 0 0 1 0 5.7L562.8 512z" p-id="18589"></path></svg>