<?xml version="1.0" standalone="no"?><!DOCTYPE svg PUBLIC "-//W3C//DTD SVG 1.1//EN" "http://www.w3.org/Graphics/SVG/1.1/DTD/svg11.dtd"><svg t="1715063333303" class="icon" viewBox="0 0 1024 1024" version="1.1" xmlns="http://www.w3.org/2000/svg" p-id="37376" xmlns:xlink="http://www.w3.org/1999/xlink" width="80" height="80"><path d="M896.7 172.6l-45.3-45.3a4 4 0 0 0-5.6 0L512 461.1 178.2 127.3a4 4 0 0 0-5.6 0l-45.3 45.3a4 4 0 0 0 0 5.6L461.1 512 127.3 845.8a4 4 0 0 0 0 5.6l45.3 45.3a4 4 0 0 0 5.6 0L512 562.9l333.8 333.8a4 4 0 0 0 5.6 0l45.3-45.3a4 4 0 0 0 0-5.6L562.9 512l333.8-333.8a4 4 0 0 0 0-5.6z" p-id="37377"></path></svg>