<?xml version="1.0" standalone="no"?><!DOCTYPE svg PUBLIC "-//W3C//DTD SVG 1.1//EN" "http://www.w3.org/Graphics/SVG/1.1/DTD/svg11.dtd"><svg t="1715350794094" class="icon" viewBox="0 0 1024 1024" version="1.1" xmlns="http://www.w3.org/2000/svg" p-id="18588" xmlns:xlink="http://www.w3.org/1999/xlink" width="80" height="80"><path d="M860 224H705.3l-12.6-93.4A40 40 0 0 0 653 96H371.8a39.9 39.9 0 0 0-39.6 34.5L319.1 224H164a4 4 0 0 0-4 4v64a4 4 0 0 0 4 4h60v592a40 40 0 0 0 40 40h496a40 40 0 0 0 40-40V296h60a4 4 0 0 0 4-4v-64a4 4 0 0 0-4-4z m-460.4-56h225.5l7.5 56H391.8zM476 700a4 4 0 0 1-4 4h-56a4 4 0 0 1-4-4V452a4 4 0 0 1 4-4h56a4 4 0 0 1 4 4z m136 0a4 4 0 0 1-4 4h-56a4 4 0 0 1-4-4V452a4 4 0 0 1 4-4h56a4 4 0 0 1 4 4z" p-id="18589"></path></svg>