<?xml version="1.0" standalone="no"?><!DOCTYPE svg PUBLIC "-//W3C//DTD SVG 1.1//EN" "http://www.w3.org/Graphics/SVG/1.1/DTD/svg11.dtd"><svg t="1715217740666" class="icon" viewBox="0 0 1024 1024" version="1.1" xmlns="http://www.w3.org/2000/svg" p-id="18924" xmlns:xlink="http://www.w3.org/1999/xlink" width="80" height="80"><path d="M250.9 200H404a4 4 0 0 0 4-4v-64a4 4 0 0 0-4-4H168a40 40 0 0 0-40 40v236a4 4 0 0 0 4 4h64a4 4 0 0 0 4-4V250.9l187.7 187.7a4 4 0 0 0 5.7 0l45.2-45.2a4 4 0 0 0 0-5.7zM856 128H620a4 4 0 0 0-4 4v64a4 4 0 0 0 4 4h153.1L585.4 387.7a4 4 0 0 0 0 5.7l45.2 45.2a4 4 0 0 0 5.7 0L824 250.9V404a4 4 0 0 0 4 4h64a4 4 0 0 0 4-4V168a40 40 0 0 0-40-40z m36 488h-64a4 4 0 0 0-4 4v153.1L636.3 585.4a4 4 0 0 0-5.7 0l-45.2 45.2a4 4 0 0 0 0 5.7L773.1 824H620a4 4 0 0 0-4 4v64a4 4 0 0 0 4 4h236a40 40 0 0 0 40-40V620a4 4 0 0 0-4-4z m-498.6-30.6a4 4 0 0 0-5.7 0L200 773.1V620a4 4 0 0 0-4-4h-64a4 4 0 0 0-4 4v236a40 40 0 0 0 40 40h236a4 4 0 0 0 4-4v-64a4 4 0 0 0-4-4H250.9l187.7-187.7a4 4 0 0 0 0-5.7z" p-id="18925"></path></svg>