<?xml version="1.0" standalone="no"?><!DOCTYPE svg PUBLIC "-//W3C//DTD SVG 1.1//EN" "http://www.w3.org/Graphics/SVG/1.1/DTD/svg11.dtd"><svg t="1715217588361" class="icon" viewBox="0 0 1024 1024" version="1.1" xmlns="http://www.w3.org/2000/svg" p-id="18420" xmlns:xlink="http://www.w3.org/1999/xlink" width="80" height="80"><path d="M461.1 893.3l-0.3 0.4 22.6 22.6a40.1 40.1 0 0 0 56.6 0l350.3-350.4c92.9-92.8 92.9-243.4 0-336.3a237.9 237.9 0 0 0-336.3 0l-42 42.1-42-42.1a237.9 237.9 0 0 0-336.3 0c-92.9 92.9-92.9 243.5 0 336.3zM184.6 280.6A164.4 164.4 0 0 1 300.8 232c44.8-0.3 87.8 18.1 119.4 49.7l78 78 13.8 13.8 93-92.9a165.8 165.8 0 0 1 283 116.2c0.3 44.8-18.1 87.7-49.7 119.4L512 842.4 184.6 515a165.6 165.6 0 0 1 0-234.4z" p-id="18421"></path></svg>