<?xml version="1.0" standalone="no"?><!DOCTYPE svg PUBLIC "-//W3C//DTD SVG 1.1//EN" "http://www.w3.org/Graphics/SVG/1.1/DTD/svg11.dtd"><svg t="1715394541691" class="icon" viewBox="0 0 1024 1024" version="1.1" xmlns="http://www.w3.org/2000/svg" p-id="18420" xmlns:xlink="http://www.w3.org/1999/xlink" width="80" height="80"><path d="M512 64C264.6 64 64 264.6 64 512s200.6 448 448 448 448-200.6 448-448S759.4 64 512 64z m73.9 640.5c-32.3 29.8-79.1 63.6-124.7 63.6-30.4 0-42.2-21.8-42.2-40.9s4.6-39.6 9.9-60.8l40.2-149.8c2.7-9.9 4-17.8 4-23.7 0-13.9-14.5-9.3-37 3.9l-4.1 2.7a4.1 4.1 0 0 1-5.4-1l-10.2-13.4a4.1 4.1 0 0 1 0.4-5.3c36-36 83.6-70.1 124.9-70.1 29.1 0 39.6 19.8 39.6 40.3 0 17.1-3.9 41.5-13.2 73.9l-37.6 140.6c-2 7.9-4 16.5-4 24.4 0 13.2 10.6 16.5 34.4 2l10.1-6.1a3.9 3.9 0 0 1 5.2 1l10.2 13.4a4 4 0 0 1-0.5 5.3z m-36.3-338.4c-33.6 0-59.4-23.7-59.4-54.7s25.8-55.5 59.4-55.5 58.8 23.1 58.8 54.8-25.8 55.4-58.8 55.4z" p-id="18421"></path></svg>