<?xml version="1.0" standalone="no"?><!DOCTYPE svg PUBLIC "-//W3C//DTD SVG 1.1//EN" "http://www.w3.org/Graphics/SVG/1.1/DTD/svg11.dtd"><svg t="1715396545144" class="icon" viewBox="0 0 1024 1024" version="1.1" xmlns="http://www.w3.org/2000/svg" p-id="18586" xmlns:xlink="http://www.w3.org/1999/xlink" width="80" height="80"><path d="M512.1 63.6c-247.4 0-448 200.6-448 448a445.8 445.8 0 0 0 100.1 282.2c19.6 24.1-58.3 149.9-34.2 169.4 5.6 4.6 13.7 6.4 23.6 6.4 47.3 0 135.4-42.9 180.5-42.9a44.5 44.5 0 0 1 15.4 2.4 445.5 445.5 0 0 0 162.6 30.5c247.5 0 448-200.6 448-448s-200.5-448-448-448z m-228 507a58 58 0 1 1 58-58 58 58 0 0 1-58 58z m228 0a58 58 0 1 1 58-58 58 58 0 0 1-58 58z m228 0a58 58 0 1 1 58-58 58 58 0 0 1-58 58z" p-id="18587"></path></svg>