<?xml version="1.0" standalone="no"?><!DOCTYPE svg PUBLIC "-//W3C//DTD SVG 1.1//EN" "http://www.w3.org/Graphics/SVG/1.1/DTD/svg11.dtd"><svg t="1715138811992" class="icon" viewBox="0 0 1024 1024" version="1.1" xmlns="http://www.w3.org/2000/svg" p-id="18754" xmlns:xlink="http://www.w3.org/1999/xlink" width="80" height="80"><path d="M473.1 928h0.3c227.5 0 412.4-180.5 417.7-407.9 5-216.6-154.9-396.8-362.8-424.1h-0.6a4 4 0 0 0-3.2 6.2 416.2 416.2 0 0 1 68.3 229c0 214.1-161.1 390.6-368.7 414.9-8.5 1-30.5 1.5-51.5 1.5-13.6 0-26.7-0.2-35.6-0.6h-0.2a4 4 0 0 0-3.2 6.3C209.3 859 333.2 927.9 473.1 928z m66.8-270.1a489 489 0 0 0 124.9-326.7 491.5 491.5 0 0 0-14.4-118.1 345.5 345.5 0 0 1 168.7 305.3c-2.1 91.1-39 176.1-103.8 239.4S564.5 856 473.4 856h-0.2a346.9 346.9 0 0 1-84-10.3 343.3 343.3 0 0 1-76.4-29.2c-6.2-3.2-12.3-6.7-18.2-10.3a489.3 489.3 0 0 0 245.3-148.3z" p-id="18755"></path></svg>