<?xml version="1.0" standalone="no"?><!DOCTYPE svg PUBLIC "-//W3C//DTD SVG 1.1//EN" "http://www.w3.org/Graphics/SVG/1.1/DTD/svg11.dtd"><svg t="1714967803058" class="icon" viewBox="0 0 1024 1024" version="1.1" xmlns="http://www.w3.org/2000/svg" p-id="18420" xmlns:xlink="http://www.w3.org/1999/xlink" width="80" height="80"><path d="M860 192H164a4 4 0 0 0-4 4v64a4 4 0 0 0 4 4h696a4 4 0 0 0 4-4v-64a4 4 0 0 0-4-4z m0 284H164a4 4 0 0 0-4 4v64a4 4 0 0 0 4 4h696a4 4 0 0 0 4-4v-64a4 4 0 0 0-4-4z m0 284H164a4 4 0 0 0-4 4v64a4 4 0 0 0 4 4h696a4 4 0 0 0 4-4v-64a4 4 0 0 0-4-4z" p-id="18421"></path></svg>