<?xml version="1.0" standalone="no"?><!DOCTYPE svg PUBLIC "-//W3C//DTD SVG 1.1//EN" "http://www.w3.org/Graphics/SVG/1.1/DTD/svg11.dtd"><svg t="1715846142966" class="icon" viewBox="0 0 1024 1024" version="1.1" xmlns="http://www.w3.org/2000/svg" p-id="18586" xmlns:xlink="http://www.w3.org/1999/xlink" width="80" height="80"><path d="M512 563.5c133.7 0 242-108.3 242-242s-108.3-242-242-242-242 108.3-242 242 108.3 242 242 242z m184.7 14.8a3.9 3.9 0 0 0-4.3 0.2 305.6 305.6 0 0 1-58.2 32.3 314.6 314.6 0 0 1-244.4 0 305.6 305.6 0 0 1-58.2-32.3 3.9 3.9 0 0 0-4.3-0.2C208.5 643.6 128 769.9 128 915v25a4 4 0 0 0 4 4h760a4 4 0 0 0 4-4v-25c0-145.1-80.5-271.4-199.3-336.7z" p-id="18587"></path></svg>