<?xml version="1.0" standalone="no"?><!DOCTYPE svg PUBLIC "-//W3C//DTD SVG 1.1//EN" "http://www.w3.org/Graphics/SVG/1.1/DTD/svg11.dtd"><svg t="1715217599467" class="icon" viewBox="0 0 1024 1024" version="1.1" xmlns="http://www.w3.org/2000/svg" p-id="18588" xmlns:xlink="http://www.w3.org/1999/xlink" width="80" height="80"><path d="M87.9 896.6a15.6 15.6 0 0 0 14.6-9.8c69.3-163.5 224-282 408.2-299.6v164.7a15.5 15.5 0 0 0 25.6 11.7l355-304.4a15.6 15.6 0 0 0 0-23.6l-355-304.4a15.5 15.5 0 0 0-25.6 11.8v154.6C259.6 321.6 63.3 533 63.3 790.3a494.4 494.4 0 0 0 8.8 93.3 15.7 15.7 0 0 0 15.8 13z m76.9-262a423.9 423.9 0 0 1 352.7-265.3l50.7-4.8a16.1 16.1 0 0 0 14.5-16v-82.7l211.7 181.6L582.7 629V525.5a16.1 16.1 0 0 0-17.6-15.9l-61.3 5.9a564.8 564.8 0 0 0-283.2 109 572 572 0 0 0-73.2 64.8 428.8 428.8 0 0 1 17.4-54.7z" p-id="18589"></path></svg>