<?xml version="1.0" standalone="no"?><!DOCTYPE svg PUBLIC "-//W3C//DTD SVG 1.1//EN" "http://www.w3.org/Graphics/SVG/1.1/DTD/svg11.dtd"><svg t="1715394569030" class="icon" viewBox="0 0 1024 1024" version="1.1" xmlns="http://www.w3.org/2000/svg" p-id="18586" xmlns:xlink="http://www.w3.org/1999/xlink" width="80" height="80"><path d="M512 64C264.6 64 64 264.6 64 512s200.6 448 448 448 448-200.6 448-448S759.4 64 512 64z m244.3 316L440.9 694.8a3.9 3.9 0 0 1-5.6 0L267.7 527.5a3.9 3.9 0 0 1 0-5.6l45.2-45.2a4.2 4.2 0 0 1 5.7 0l116.7 116.5a3.9 3.9 0 0 0 5.6 0l264.5-264a4 4 0 0 1 5.7 0l45.2 45.1a4 4 0 0 1 0 5.7z" p-id="18587"></path></svg>