<?xml version="1.0" standalone="no"?><!DOCTYPE svg PUBLIC "-//W3C//DTD SVG 1.1//EN" "http://www.w3.org/Graphics/SVG/1.1/DTD/svg11.dtd"><svg t="1715138731689" class="icon" viewBox="0 0 1024 1024" version="1.1" xmlns="http://www.w3.org/2000/svg" p-id="18420" xmlns:xlink="http://www.w3.org/1999/xlink" width="80" height="80"><path d="M512 320c-106 0-192 86-192 192s86 192 192 192 192-86 192-192-86-192-192-192z m-28-64h56a4 4 0 0 0 4-4V100a4 4 0 0 0-4-4h-56a4 4 0 0 0-4 4v152a4 4 0 0 0 4 4z m-178.5 94.8a4 4 0 0 0 2.9 1.2 3.9 3.9 0 0 0 2.8-1.2l39.6-39.6a4.2 4.2 0 0 0 0-5.7L243.3 198a4.3 4.3 0 0 0-2.8-1.1 4.4 4.4 0 0 0-2.9 1.1L198 237.6a4.2 4.2 0 0 0 0 5.7zM256 540v-56a4 4 0 0 0-4-4H100a4 4 0 0 0-4 4v56a4 4 0 0 0 4 4h152a4 4 0 0 0 4-4z m55.2 133.2a3.9 3.9 0 0 0-2.8-1.2 4 4 0 0 0-2.9 1.2L198 780.7a4.2 4.2 0 0 0 0 5.7l39.6 39.6a4.4 4.4 0 0 0 2.9 1.1 4.3 4.3 0 0 0 2.8-1.1l107.5-107.5a4.2 4.2 0 0 0 0-5.7zM540 768h-56a4 4 0 0 0-4 4v152a4 4 0 0 0 4 4h56a4 4 0 0 0 4-4V772a4 4 0 0 0-4-4z m178.5-94.8a4 4 0 0 0-2.9-1.2 3.9 3.9 0 0 0-2.8 1.2l-39.6 39.6a4.2 4.2 0 0 0 0 5.7L780.7 826a4.3 4.3 0 0 0 2.8 1.1 4.4 4.4 0 0 0 2.9-1.1l39.6-39.6a4.2 4.2 0 0 0 0-5.7zM924 480H772a4 4 0 0 0-4 4v56a4 4 0 0 0 4 4h152a4 4 0 0 0 4-4v-56a4 4 0 0 0-4-4zM712.8 350.8a3.9 3.9 0 0 0 2.8 1.2 4 4 0 0 0 2.9-1.2L826 243.3a4.2 4.2 0 0 0 0-5.7L786.4 198a4.4 4.4 0 0 0-2.9-1.1 4.3 4.3 0 0 0-2.8 1.1L673.2 305.5a4.2 4.2 0 0 0 0 5.7z" p-id="18421"></path></svg>