<?xml version="1.0" standalone="no"?><!DOCTYPE svg PUBLIC "-//W3C//DTD SVG 1.1//EN" "http://www.w3.org/Graphics/SVG/1.1/DTD/svg11.dtd"><svg t="1715846214332" class="icon" viewBox="0 0 1024 1024" version="1.1" xmlns="http://www.w3.org/2000/svg" p-id="18754" xmlns:xlink="http://www.w3.org/1999/xlink" width="80" height="80"><path d="M815.6 441.2C808 299.2 689.9 186 545.9 186c-114.1 0-216.1 73.3-254.2 178.3C165.3 369.3 64 473.6 64 601c0 130.7 106.4 237 237.3 237h113.4a3.3 3.3 0 0 0 1.7-0.4 144.8 144.8 0 0 0 39.8-26c50.3-46.4 54.6-117.4 54.8-122.3V635a4 4 0 0 0-4-4h-68a4 4 0 0 1-3.3-6.2l100.2-152.1a4 4 0 0 1 6.7 0l100.3 152.1a4 4 0 0 1-3.4 6.2H571a4 4 0 0 0-4 4v55.5c-0.1 3.6-2.6 79.1-52.9 141a4 4 0 0 0 3.1 6.5h239.9C869 838 960 747.1 960 635.3a202.3 202.3 0 0 0-144.4-194.1z" p-id="18755"></path></svg>