<?xml version="1.0" standalone="no"?><!DOCTYPE svg PUBLIC "-//W3C//DTD SVG 1.1//EN" "http://www.w3.org/Graphics/SVG/1.1/DTD/svg11.dtd"><svg t="1715149518036" class="icon" viewBox="0 0 1024 1024" version="1.1" xmlns="http://www.w3.org/2000/svg" p-id="18588" xmlns:xlink="http://www.w3.org/1999/xlink" width="80" height="80"><path d="M790.4 715.7a120 120 0 1 0-170.8 0C548.6 748.3 499 820.1 499 903v14a4 4 0 0 0 4 4h48a4 4 0 0 0 4-4v-14c0-39.8 15.7-77.4 44.1-105.9S665.2 753 705 753s77.4 15.7 105.9 44.1S855 863.2 855 903v14a4 4 0 0 0 4 4h48a4 4 0 0 0 4-4v-14c0-82.9-49.6-154.7-120.6-187.3zM705 695.5a64 64 0 1 1 64-64 64.1 64.1 0 0 1-64 64zM704 268v-56a4 4 0 0 0-4-4H324a4 4 0 0 0-4 4v56a4 4 0 0 0 4 4h376a4 4 0 0 0 4-4z m-380 76a4 4 0 0 0-4 4v56a4 4 0 0 0 4 4h304a4 4 0 0 0 4-4v-56a4 4 0 0 0-4-4z m160 136H324a4 4 0 0 0-4 4v56a4 4 0 0 0 4 4h160a4 4 0 0 0 4-4v-56a4 4 0 0 0-4-4z m-24 344H248V136h528v348a4 4 0 0 0 4 4h64a4 4 0 0 0 4-4V104a40 40 0 0 0-40-40H216a40 40 0 0 0-40 40v752a40 40 0 0 0 40 40h244a4 4 0 0 0 4-4v-64a4 4 0 0 0-4-4z" p-id="18589"></path></svg>