<?xml version="1.0" standalone="no"?><!DOCTYPE svg PUBLIC "-//W3C//DTD SVG 1.1//EN" "http://www.w3.org/Graphics/SVG/1.1/DTD/svg11.dtd"><svg t="1715149729334" class="icon" viewBox="0 0 1024 1024" version="1.1" xmlns="http://www.w3.org/2000/svg" p-id="19596" xmlns:xlink="http://www.w3.org/1999/xlink" width="80" height="80"><path d="M512 64C264.6 64 64 264.6 64 512s200.6 448 448 448 448-200.6 448-448S759.4 64 512 64z m0 190.4a154 154 0 1 1-154 154 154 154 0 0 1 154-154z m216 511.2a4 4 0 0 1-4 4H300a4 4 0 0 1-4-4V748c0-65.4 24.5-124.5 64-167.1a4.1 4.1 0 0 1 5.6-0.4 225.5 225.5 0 0 0 292.8 0 4.1 4.1 0 0 1 5.6 0.4c39.5 42.6 64 101.7 64 167.1z" p-id="19597"></path></svg>