<?xml version="1.0" standalone="no"?><!DOCTYPE svg PUBLIC "-//W3C//DTD SVG 1.1//EN" "http://www.w3.org/Graphics/SVG/1.1/DTD/svg11.dtd"><svg t="1715149554373" class="icon" viewBox="0 0 1024 1024" version="1.1" xmlns="http://www.w3.org/2000/svg" p-id="19260" xmlns:xlink="http://www.w3.org/1999/xlink" width="80" height="80"><path d="M887.8 329.1L758.9 145a40.2 40.2 0 0 0-32.7-17H297.1a39.9 39.9 0 0 0-32.8 17.1L136.2 329.2a39.9 39.9 0 0 0-0.3 45.3l343.1 504a40 40 0 0 0 66.1 0l343-504a40.1 40.1 0 0 0-0.3-45.4zM512 799.1L207.9 352.2 313.8 200h395.7l106.6 152.3zM540.3 303a40.1 40.1 0 0 0-56.6 0L364.2 422.5a4 4 0 0 0 0 5.7l39.6 39.6a4 4 0 0 0 5.7 0L512 365.3l102.5 102.5a4 4 0 0 0 5.7 0l39.6-39.6a4 4 0 0 0 0-5.7z" p-id="19261"></path></svg>