<?xml version="1.0" standalone="no"?><!DOCTYPE svg PUBLIC "-//W3C//DTD SVG 1.1//EN" "http://www.w3.org/Graphics/SVG/1.1/DTD/svg11.dtd"><svg t="1715394691961" class="icon" viewBox="0 0 1024 1024" version="1.1" xmlns="http://www.w3.org/2000/svg" p-id="18922" xmlns:xlink="http://www.w3.org/1999/xlink" width="80" height="80"><path d="M512 64C264.6 64 64 264.6 64 512s200.6 448 448 448 448-200.6 448-448S759.4 64 512 64z m-36 208a4 4 0 0 1 4-4h64a4 4 0 0 1 4 4v312a4 4 0 0 1-4 4h-64a4 4 0 0 1-4-4z m84 436a48 48 0 0 1-48 48 48 48 0 0 1-48-48 48 48 0 0 1 48-48 48 48 0 0 1 48 48z" p-id="18923"></path></svg>